<svg width="314" height="101" viewBox="0 0 314 101" fill="none" xmlns="http://www.w3.org/2000/svg">
<path d="M100.2 14.2275V16.6275C97.64 16.7075 95.68 17.0275 94.32 17.5875C92.96 18.0675 92.04 19.0275 91.56 20.4675C91.16 21.8275 90.96 23.9875 90.96 26.9475V86.4675C90.96 89.3475 91.2 91.5075 91.68 92.9475C92.16 94.3875 93.04 95.3475 94.32 95.8275C95.68 96.3075 97.64 96.6275 100.2 96.7875V99.1875C98.12 99.0275 95.48 98.9475 92.28 98.9475C89.08 98.8675 85.84 98.8275 82.56 98.8275C78.96 98.8275 75.56 98.8675 72.36 98.9475C69.24 98.9475 66.72 99.0275 64.8 99.1875V96.7875C67.52 96.6275 69.56 96.3075 70.92 95.8275C72.36 95.3475 73.32 94.3875 73.8 92.9475C74.28 91.5075 74.52 89.3475 74.52 86.4675V21.1875L75.36 21.3075L45.6 99.5475H43.68L12 21.9075V81.4275C12 85.2675 12.24 88.2675 12.72 90.4275C13.2 92.5075 14.24 94.0275 15.84 94.9875C17.52 95.8675 20.04 96.4675 23.4 96.7875V99.1875C21.88 99.0275 19.92 98.9475 17.52 98.9475C15.12 98.8675 12.84 98.8275 10.68 98.8275C8.76 98.8275 6.8 98.8675 4.8 98.9475C2.88 98.9475 1.28 99.0275 0 99.1875V96.7875C2.64 96.4675 4.6 95.8675 5.88 94.9875C7.24 94.1075 8.12 92.6675 8.52 90.6675C9 88.6675 9.24 85.9075 9.24 82.3875V26.9475C9.24 23.9875 9 21.8275 8.52 20.4675C8.12 19.0275 7.24 18.0675 5.88 17.5875C4.6 17.0275 2.64 16.7075 0 16.6275V14.2275C1.28 14.3075 2.88 14.3875 4.8 14.4675C6.8 14.5475 8.76 14.5875 10.68 14.5875C13.64 14.5875 16.52 14.5475 19.32 14.4675C22.12 14.3875 24.6 14.3075 26.76 14.2275L52.56 78.6675L49.92 80.8275L75 14.5875C76.2 14.5875 77.44 14.5875 78.72 14.5875C80.08 14.5875 81.36 14.5875 82.56 14.5875C85.84 14.5875 89.08 14.5475 92.28 14.4675C95.48 14.3875 98.12 14.3075 100.2 14.2275Z" fill="#F6EFDF"/>
<path d="M122.662 6.5475C125.542 6.5475 127.902 7.3475 129.742 8.9475C131.582 10.5475 132.502 12.6675 132.502 15.3075C132.502 17.9475 131.582 20.0675 129.742 21.6675C127.902 23.2675 125.542 24.0675 122.662 24.0675C119.782 24.0675 117.422 23.2675 115.582 21.6675C113.742 20.0675 112.822 17.9475 112.822 15.3075C112.822 12.6675 113.742 10.5475 115.582 8.9475C117.422 7.3475 119.782 6.5475 122.662 6.5475ZM131.062 35.8275V88.0275C131.062 91.3875 131.662 93.6675 132.862 94.8675C134.142 96.0675 136.262 96.6675 139.222 96.6675V99.1875C137.782 99.1075 135.582 99.0275 132.622 98.9475C129.662 98.7875 126.662 98.7075 123.622 98.7075C120.662 98.7075 117.662 98.7875 114.622 98.9475C111.582 99.0275 109.302 99.1075 107.782 99.1875V96.6675C110.742 96.6675 112.822 96.0675 114.022 94.8675C115.302 93.6675 115.942 91.3875 115.942 88.0275V50.3475C115.942 46.6675 115.342 43.9875 114.142 42.3075C113.022 40.5475 110.902 39.6675 107.782 39.6675V37.1475C110.342 37.3875 112.822 37.5075 115.222 37.5075C118.182 37.5075 120.982 37.3875 123.622 37.1475C126.342 36.8275 128.822 36.3875 131.062 35.8275Z" fill="#F6EFDF"/>
<path d="M184.536 35.4675C187.016 35.4675 189.056 35.9875 190.656 37.0275C192.336 38.0675 193.576 39.3875 194.376 40.9875C195.176 42.5875 195.576 44.2675 195.576 46.0275C195.576 48.6675 194.776 50.8675 193.176 52.6275C191.656 54.3875 189.616 55.2675 187.056 55.2675C184.656 55.2675 182.696 54.6275 181.176 53.3475C179.656 52.0675 178.896 50.3075 178.896 48.0675C178.896 46.0675 179.376 44.3875 180.336 43.0275C181.376 41.6675 182.536 40.5875 183.816 39.7875C182.936 39.3075 181.936 39.1475 180.816 39.3075C178.896 39.4675 177.136 40.1475 175.536 41.3475C173.936 42.5475 172.576 44.0275 171.456 45.7875C170.336 47.5475 169.456 49.4275 168.816 51.4275C168.256 53.4275 167.976 55.3475 167.976 57.1875V86.8275C167.976 90.7475 168.976 93.3875 170.976 94.7475C172.976 96.0275 175.896 96.6675 179.736 96.6675V99.1875C177.896 99.1075 175.216 99.0275 171.696 98.9475C168.256 98.7875 164.656 98.7075 160.896 98.7075C157.776 98.7075 154.656 98.7875 151.536 98.9475C148.496 99.0275 146.216 99.1075 144.696 99.1875V96.6675C147.656 96.6675 149.736 96.0675 150.936 94.8675C152.216 93.6675 152.856 91.3875 152.856 88.0275V50.2275C152.856 46.6275 152.256 43.9875 151.056 42.3075C149.936 40.5475 147.816 39.6675 144.696 39.6675V37.1475C147.256 37.3875 149.736 37.5075 152.136 37.5075C155.096 37.5075 157.896 37.3875 160.536 37.1475C163.256 36.8275 165.736 36.3875 167.976 35.8275V48.3075C168.936 46.0675 170.176 43.9875 171.696 42.0675C173.296 40.1475 175.176 38.5875 177.336 37.3875C179.576 36.1075 181.976 35.4675 184.536 35.4675Z" fill="#F6EFDF"/>
<path d="M216.454 100.028C213.014 100.028 210.094 99.3875 207.694 98.1075C205.294 96.7475 203.494 94.9475 202.294 92.7075C201.094 90.3875 200.494 87.8275 200.494 85.0275C200.494 81.5875 201.294 78.7875 202.894 76.6275C204.494 74.3875 206.534 72.6275 209.014 71.3475C211.574 69.9875 214.254 68.8675 217.054 67.9875C219.854 67.0275 222.494 66.1475 224.974 65.3475C227.454 64.4675 229.494 63.4675 231.094 62.3475C232.694 61.2275 233.494 59.7475 233.494 57.9075V49.1475C233.494 46.5875 233.094 44.5075 232.294 42.9075C231.574 41.2275 230.454 39.9875 228.934 39.1875C227.494 38.3075 225.654 37.8675 223.414 37.8675C221.734 37.8675 219.974 38.1075 218.134 38.5875C216.294 39.0675 214.774 39.9875 213.574 41.3475C215.654 41.9075 217.254 42.9475 218.374 44.4675C219.574 45.9875 220.174 47.8275 220.174 49.9875C220.174 52.4675 219.334 54.4275 217.654 55.8675C216.054 57.2275 214.014 57.9075 211.534 57.9075C208.894 57.9075 206.894 57.0675 205.534 55.3875C204.174 53.7075 203.494 51.7475 203.494 49.5075C203.494 47.2675 204.054 45.4275 205.174 43.9875C206.294 42.4675 207.854 41.1075 209.854 39.9075C211.854 38.5475 214.414 37.4675 217.534 36.6675C220.654 35.8675 224.054 35.4675 227.734 35.4675C231.254 35.4675 234.374 35.8675 237.094 36.6675C239.814 37.3875 242.134 38.7075 244.054 40.6275C245.974 42.4675 247.214 44.7475 247.774 47.4675C248.334 50.1875 248.614 53.5075 248.614 57.4275V90.3075C248.614 92.3075 248.854 93.7475 249.334 94.6275C249.814 95.4275 250.574 95.8275 251.614 95.8275C252.414 95.8275 253.174 95.6275 253.894 95.2275C254.614 94.8275 255.414 94.2675 256.294 93.5475L257.614 95.5875C255.854 96.9475 254.014 98.0275 252.094 98.8275C250.174 99.6275 247.854 100.028 245.134 100.028C242.334 100.028 240.094 99.6275 238.414 98.8275C236.814 98.0275 235.614 96.8675 234.814 95.3475C234.094 93.8275 233.694 92.0275 233.614 89.9475C231.694 93.1475 229.334 95.6275 226.534 97.3875C223.734 99.1475 220.374 100.028 216.454 100.028ZM223.654 93.3075C225.574 93.3075 227.334 92.7875 228.934 91.7475C230.614 90.7075 232.134 89.1475 233.494 87.0675V62.8275C232.694 64.0275 231.534 65.1075 230.014 66.0675C228.574 67.0275 227.014 67.9875 225.334 68.9475C223.654 69.9075 222.054 71.0275 220.534 72.3075C219.094 73.5075 217.854 75.0275 216.814 76.8675C215.854 78.6275 215.374 80.9075 215.374 83.7075C215.374 86.8275 216.134 89.2275 217.654 90.9075C219.174 92.5075 221.174 93.3075 223.654 93.3075Z" fill="#F6EFDF"/>
<path d="M291.303 35.4675C298.343 35.4675 303.863 37.5875 307.863 41.8275C311.863 46.0675 313.863 52.8275 313.863 62.1075H273.423L273.303 59.8275H299.943C300.103 55.9075 299.863 52.3075 299.223 49.0275C298.583 45.6675 297.543 42.9875 296.103 40.9875C294.743 38.9875 292.943 37.9875 290.703 37.9875C287.663 37.9875 285.023 39.7875 282.783 43.3875C280.543 46.9075 279.143 52.7075 278.583 60.7875L279.063 61.5075C278.903 62.5475 278.783 63.6675 278.703 64.8675C278.703 66.0675 278.703 67.2675 278.703 68.4675C278.703 73.9875 279.503 78.5475 281.103 82.1475C282.703 85.7475 284.783 88.3875 287.343 90.0675C289.903 91.7475 292.543 92.5875 295.263 92.5875C297.103 92.5875 298.983 92.3075 300.903 91.7475C302.823 91.1875 304.703 90.1475 306.543 88.6275C308.383 87.1075 310.063 84.9475 311.583 82.1475L313.863 83.1075C312.983 85.9075 311.503 88.7075 309.423 91.5075C307.423 94.2275 304.823 96.4675 301.623 98.2275C298.423 99.9875 294.663 100.868 290.343 100.868C284.903 100.868 280.103 99.6675 275.943 97.2675C271.783 94.8675 268.543 91.3075 266.223 86.5875C263.903 81.7875 262.743 75.9475 262.743 69.0675C262.743 61.7875 263.943 55.6675 266.343 50.7075C268.823 45.7475 272.223 41.9875 276.543 39.4275C280.863 36.7875 285.783 35.4675 291.303 35.4675ZM303.903 1.2675C305.103 2.3075 305.743 3.6275 305.823 5.2275C305.903 6.8275 305.303 8.4675 304.023 10.1475C302.823 11.6675 301.303 13.1475 299.463 14.5875C297.703 15.9475 295.583 17.5875 293.103 19.5075C290.623 21.4275 287.663 24.0275 284.223 27.3075L282.903 26.2275C285.303 22.0675 287.103 18.5475 288.303 15.6675C289.583 12.7875 290.663 10.3075 291.543 8.2275C292.423 6.1475 293.503 4.3075 294.783 2.7075C296.063 1.1875 297.543 0.307502 299.223 0.0675008C300.983 -0.172501 302.543 0.227499 303.903 1.2675Z" fill="#F6EFDF"/>
</svg>
